<svg xmlns="http://www.w3.org/2000/svg" viewBox="0 0 4436 1375.35"><defs><style>.cls-1{fill:#03dac5;}.cls-2,.cls-5{fill:#fff;}.cls-2{stroke:#fff;stroke-miterlimit:10;}.cls-3{fill:#f44336;}.cls-4{isolation:isolate;}</style></defs><title>LYDUZ DARK MODE BETA</title><g id="Layer_2" data-name="Layer 2"><g id="Layer_1-2" data-name="Layer 1"><g id="Layer_2-2" data-name="Layer 2"><g id="Layer_1-2-2" data-name="Layer 1-2"><g id="Layer_2-2-2" data-name="Layer 2-2"><g id="Layer_1-2-2-2" data-name="Layer 1-2-2"><rect class="cls-1" x="549.47" width="90.55" height="312.41"/><polygon class="cls-1" points="888.38 132.85 888.38 449.69 301.08 449.69 301.08 132.85 394.59 132.85 394.59 349.11 797.96 349.11 797.96 132.85 888.38 132.85"/><path class="cls-2" d="M.5,247.92H148.58v878.44H.5Z"/><path class="cls-2" d="M737.13,498.9h145.6v374A336.66,336.66,0,0,1,870.1,965.1,269.5,269.5,0,0,1,831,1047.31a264.22,264.22,0,0,1-66.27,65.24q-39.75,27.6-94,40.18v222.12H525V1151.46a310,310,0,0,1-86.54-42.66,322.14,322.14,0,0,1-67.13-63.37,280,280,0,0,1-43.93-79.69,274,274,0,0,1-15.69-92.86v-374H459.83v374A137.12,137.12,0,0,0,500,970.75a146.28,146.28,0,0,0,43.93,30.11,129.76,129.76,0,0,0,54,11.3,138.15,138.15,0,0,0,53.34-10.65A136.12,136.12,0,0,0,695.77,972a146.28,146.28,0,0,0,30.11-43.93,130,130,0,0,0,11.22-54Z"/><path class="cls-2" d="M1690.85,811.37q0,72.79-26.37,134.91a331.38,331.38,0,0,1-72.77,107.92,344.3,344.3,0,0,1-108.54,72.12q-62.13,26.34-133.66,26.36t-133.65-27A341.19,341.19,0,0,1,1035.15,945q-27-62.12-27-133.66t27-133.64A341,341,0,0,1,1215.86,497q62.13-27,133.65-27,53.94,0,108.56,21.95t87.2,52.07V247.92h145.58Zm-145.58,0a186.9,186.9,0,0,0-15.69-75.91,197.84,197.84,0,0,0-104.17-104.17,191.63,191.63,0,0,0-151.85,0A198.1,198.1,0,0,0,1169.4,735.46a191.72,191.72,0,0,0,0,151.85,198.22,198.22,0,0,0,104.16,104.16,191.55,191.55,0,0,0,151.85,0,198,198,0,0,0,104.17-104.16,186.88,186.88,0,0,0,15.69-75.94Z"/><path class="cls-2" d="M2254.32,498.9H2399.9V866.6A271.82,271.82,0,0,1,2377.3,977a307.34,307.34,0,0,1-60.9,91A279.5,279.5,0,0,1,2115,1152.73a271.73,271.73,0,0,1-110.44-22.6,295.57,295.57,0,0,1-153.09-153.72,276.27,276.27,0,0,1-22.58-111.06V498.9h145.56V866.6a129.75,129.75,0,0,0,11.22,54,146.24,146.24,0,0,0,30.1,43.93A135.72,135.72,0,0,0,2060.31,994a140.94,140.94,0,0,0,54.58,10.68A137.81,137.81,0,0,0,2168.23,994a135.93,135.93,0,0,0,44.55-29.48,146.28,146.28,0,0,0,30.11-43.93,129.9,129.9,0,0,0,11.22-54Z"/><path class="cls-2" d="M2585.59,498.9h504.49L2787.64,980.78h302.44v145.58h-571l301.16-481.88H2585.59Z"/><path class="cls-3" d="M3284.85,53.16h956.39c107.56,0,194.76,87.2,194.76,194.76h0c0,107.56-87.2,194.76-194.76,194.76H3284.85c-107.57,0-194.77-87.2-194.77-194.76h0C3090.08,140.36,3177.28,53.16,3284.85,53.16Z"/><g class="cls-4"><path class="cls-5" d="M3398.78,358.35a13.6,13.6,0,0,1-4.44-10.19V164.45a13.52,13.52,0,0,1,4.44-10.26A15.11,15.11,0,0,1,3409.5,150h61.75q38.45,0,56.84,13.91t18.39,39q0,19-11.42,32.43t-32.71,16.06v.6q25,2.67,39.15,16.28t14.17,37.27a50.23,50.23,0,0,1-4.6,21.19,56.49,56.49,0,0,1-13.4,18.15q-8.82,8.12-23.52,12.87t-33.4,4.76H3409.5A15,15,0,0,1,3398.78,358.35Zm68-116.7q25.89,0,37.76-8.62t11.88-28.27a34.57,34.57,0,0,0-2.53-13.83,25.22,25.22,0,0,0-6.51-9.22,28.42,28.42,0,0,0-10.27-5.36,67.82,67.82,0,0,0-12.48-2.6,137.75,137.75,0,0,0-14.64-.67h-45v68.57Zm7.66,97.58q25.89,0,37.46-7.81t11.56-29.52q0-21.42-14.4-29.31t-45.66-7.88H3425v74.52Z"/><path class="cls-5" d="M3600.94,358.2a13.57,13.57,0,0,1-4.67-10.19V164.6a14.26,14.26,0,0,1,4.21-10.19,13.81,13.81,0,0,1,10.34-4.39h113.53q5.82,0,9,3.5a12,12,0,0,1,3.22,8.4,12.21,12.21,0,0,1-3.22,8.48q-3.21,3.57-9,3.57h-97.13v67.68h91.92q6,0,9.19,3.42a11.53,11.53,0,0,1,3.22,8.19,11.65,11.65,0,0,1-3.29,8.25q-3.3,3.5-9.12,3.5h-91.92v73.63h101.11q5.84,0,9,3.57a12.21,12.21,0,0,1,3.22,8.48,12,12,0,0,1-3.22,8.4q-3.21,3.5-9,3.5H3611.59A15.17,15.17,0,0,1,3600.94,358.2Z"/><path class="cls-5" d="M3838.34,358.72a13.08,13.08,0,0,1-4.59-10.56V174H3776q-6,0-9.35-3.57a11.91,11.91,0,0,1-3.37-8.48,11.7,11.7,0,0,1,3.37-8.32Q3770,150,3776,150h145.7q6.12,0,9.42,3.5a12.33,12.33,0,0,1-.08,16.88q-3.36,3.57-9.34,3.57h-57V348.16a13.08,13.08,0,0,1-4.59,10.56,17.23,17.23,0,0,1-21.76,0Z"/><path class="cls-5" d="M4100.48,308.44h-105.4L3977,353.66q-3.84,9.82-14.25,9.82a16.63,16.63,0,0,1-10.65-3.72,11.48,11.48,0,0,1-4.67-9.37,15.34,15.34,0,0,1,1.22-5.51l72.78-175.37q5.21-12.64,11.26-16.73t15.09-4.09q9,0,15.09,4.09t11.26,16.73l72.78,175.37a15.56,15.56,0,0,1,1.22,5.51,11.42,11.42,0,0,1-4.75,9.37,16.92,16.92,0,0,1-10.72,3.72q-10.27,0-14.1-9.82ZM4047.78,177l-44,109.92h87.94Z"/></g></g></g></g></g></g></g></svg>